<svg width="25" height="24" viewBox="0 0 25 24" fill="none" xmlns="http://www.w3.org/2000/svg">
<g id="Briefcase">
<path id="Vector" d="M20.5898 6.75H4.08984C3.67563 6.75 3.33984 7.08579 3.33984 7.5V19.5C3.33984 19.9142 3.67563 20.25 4.08984 20.25H20.5898C21.0041 20.25 21.3398 19.9142 21.3398 19.5V7.5C21.3398 7.08579 21.0041 6.75 20.5898 6.75Z" stroke="#9199A3" stroke-width="1.5" stroke-linecap="round" stroke-linejoin="round"/>
<path id="Vector_2" d="M16.0898 6.75V5.25C16.0898 4.85218 15.9318 4.47064 15.6505 4.18934C15.3692 3.90804 14.9877 3.75 14.5898 3.75H10.0898C9.69202 3.75 9.31049 3.90804 9.02918 4.18934C8.74788 4.47064 8.58984 4.85218 8.58984 5.25V6.75" stroke="#9199A3" stroke-width="1.5" stroke-linecap="round" stroke-linejoin="round"/>
<path id="Vector_3" d="M21.34 11.8414C18.6046 13.424 15.4994 14.2549 12.3392 14.2499C9.17961 14.2549 6.07487 13.4243 3.33984 11.8422" stroke="#9199A3" stroke-width="1.5" stroke-linecap="round" stroke-linejoin="round"/>
<path id="Vector_4" d="M11.2148 11.25H13.4648" stroke="#9199A3" stroke-width="1.5" stroke-linecap="round" stroke-linejoin="round"/>
</g>
</svg>
