<svg width="33" height="32" viewBox="0 0 33 32" fill="none" xmlns="http://www.w3.org/2000/svg">
<g id="Briefcase">
<path id="Vector" d="M27.9258 9H5.92578C5.3735 9 4.92578 9.44772 4.92578 10V26C4.92578 26.5523 5.3735 27 5.92578 27H27.9258C28.4781 27 28.9258 26.5523 28.9258 26V10C28.9258 9.44772 28.4781 9 27.9258 9Z" stroke="#009BAB" stroke-width="2" stroke-linecap="round" stroke-linejoin="round"/>
<path id="Vector_2" d="M21.9258 9V7C21.9258 6.46957 21.7151 5.96086 21.34 5.58579C20.9649 5.21071 20.4562 5 19.9258 5H13.9258C13.3953 5 12.8866 5.21071 12.5116 5.58579C12.1365 5.96086 11.9258 6.46957 11.9258 7V9" stroke="#009BAB" stroke-width="2" stroke-linecap="round" stroke-linejoin="round"/>
<path id="Vector_3" d="M28.926 15.7887C25.2788 17.8988 21.1385 19.0067 16.925 19.0001C12.7121 19.0067 8.57248 17.8991 4.92578 15.7898" stroke="#009BAB" stroke-width="2" stroke-linecap="round" stroke-linejoin="round"/>
<path id="Vector_4" d="M15.4258 15H18.4258" stroke="#009BAB" stroke-width="2" stroke-linecap="round" stroke-linejoin="round"/>
</g>
</svg>
