<svg width="33" height="32" viewBox="0 0 33 32" fill="none" xmlns="http://www.w3.org/2000/svg">
<g id="Buildings">
<path id="Vector" d="M2.96289 26.9979H30.9629" stroke="#009BAB" stroke-width="2" stroke-linecap="round" stroke-linejoin="round"/>
<path id="Vector_2" d="M18.9629 26.9979V4.99792C18.9629 4.73271 18.8575 4.47835 18.67 4.29082C18.4825 4.10328 18.2281 3.99792 17.9629 3.99792H5.96289C5.69767 3.99792 5.44332 4.10328 5.25578 4.29082C5.06825 4.47835 4.96289 4.73271 4.96289 4.99792V26.9979" stroke="#009BAB" stroke-width="2" stroke-linecap="round" stroke-linejoin="round"/>
<path id="Vector_3" d="M28.9629 26.9979V12.9979C28.9629 12.7327 28.8575 12.4784 28.67 12.2908C28.4825 12.1033 28.2281 11.9979 27.9629 11.9979H18.9629" stroke="#009BAB" stroke-width="2" stroke-linecap="round" stroke-linejoin="round"/>
<path id="Vector_4" d="M8.96289 8.99792H12.9629" stroke="#009BAB" stroke-width="2" stroke-linecap="round" stroke-linejoin="round"/>
<path id="Vector_5" d="M10.9629 16.9979H14.9629" stroke="#009BAB" stroke-width="1.5" stroke-linecap="round" stroke-linejoin="round"/>
<path id="Vector_6" d="M8.96289 21.9979H12.9629" stroke="#009BAB" stroke-width="1.5" stroke-linecap="round" stroke-linejoin="round"/>
<path id="Vector_7" d="M22.9629 21.9979H24.9629" stroke="#009BAB" stroke-width="1.5" stroke-linecap="round" stroke-linejoin="round"/>
<path id="Vector_8" d="M22.9629 16.9979H24.9629" stroke="#009BAB" stroke-width="1.5" stroke-linecap="round" stroke-linejoin="round"/>
</g>
</svg>
