<svg width="25" height="24" viewBox="0 0 25 24" fill="none" xmlns="http://www.w3.org/2000/svg">
<g id="ClipboardText">
<path id="Vector" d="M9.33984 14.25H15.3398" stroke="#9199A3" stroke-width="1.5" stroke-linecap="round" stroke-linejoin="round"/>
<path id="Vector_2" d="M9.33984 11.25H15.3398" stroke="#9199A3" stroke-width="1.5" stroke-linecap="round" stroke-linejoin="round"/>
<path id="Vector_3" d="M15.34 3.75H19.0898C19.2888 3.75 19.4795 3.82902 19.6202 3.96967C19.7608 4.11032 19.8398 4.30109 19.8398 4.5V20.25C19.8398 20.4489 19.7608 20.6397 19.6202 20.7803C19.4795 20.921 19.2888 21 19.0898 21H5.58984C5.39093 21 5.20017 20.921 5.05951 20.7803C4.91886 20.6397 4.83984 20.4489 4.83984 20.25V4.5C4.83984 4.30109 4.91886 4.11032 5.05951 3.96967C5.20017 3.82902 5.39093 3.75 5.58984 3.75H9.33964" stroke="#9199A3" stroke-width="1.5" stroke-linecap="round" stroke-linejoin="round"/>
<path id="Vector_4" d="M8.58984 6.75V6C8.58984 5.00544 8.98493 4.05161 9.68819 3.34835C10.3915 2.64509 11.3453 2.25 12.3398 2.25C13.3344 2.25 14.2882 2.64509 14.9915 3.34835C15.6948 4.05161 16.0898 5.00544 16.0898 6V6.75H8.58984Z" stroke="#9199A3" stroke-width="1.5" stroke-linecap="round" stroke-linejoin="round"/>
</g>
</svg>
