<svg width="23" height="22" viewBox="0 0 23 22" fill="none" xmlns="http://www.w3.org/2000/svg">
<g id="fi:map-pin">
<path id="Vector" d="M19.5898 9.16663C19.5898 15.5833 11.3398 21.0833 11.3398 21.0833C11.3398 21.0833 3.08984 15.5833 3.08984 9.16663C3.08984 6.97859 3.95904 4.88017 5.50621 3.333C7.05339 1.78582 9.15181 0.916626 11.3398 0.916626C13.5279 0.916626 15.6263 1.78582 17.1735 3.333C18.7206 4.88017 19.5898 6.97859 19.5898 9.16663Z" stroke="#9199A3" stroke-width="1.5" stroke-linecap="round" stroke-linejoin="round"/>
<path id="Vector_2" d="M11.3398 11.9166C12.8586 11.9166 14.0898 10.6854 14.0898 9.16663C14.0898 7.64784 12.8586 6.41663 11.3398 6.41663C9.82106 6.41663 8.58984 7.64784 8.58984 9.16663C8.58984 10.6854 9.82106 11.9166 11.3398 11.9166Z" stroke="#9199A3" stroke-width="1.5" stroke-linecap="round" stroke-linejoin="round"/>
</g>
</svg>
