<svg width="102" height="84" viewBox="0 0 102 84" fill="none" xmlns="http://www.w3.org/2000/svg">
<g id="logo">
<g id="Group 147">
<path id="Path 126" d="M41.7379 33.126H41.7779C42.3949 23.8911 50.1049 16.5649 59.4929 16.5649H60.0579C59.7819 16.1299 59.6199 15.6152 59.6199 15.0601V1.32617C59.6199 0.592773 59.0259 0 58.2939 0H44.3859C43.6519 0 43.0589 0.592773 43.0589 1.32617V15.0601H43.0579C43.0579 16.6191 41.7959 17.8853 40.2399 17.8862H28.3239H28.3209H26.4979C25.7649 17.8862 25.1719 18.48 25.1719 19.2109V33.1221C25.1719 33.8501 25.7649 34.4458 26.4979 34.4458H40.2359C40.7909 34.4458 41.3019 34.6162 41.7379 34.8931V33.126Z" fill="white"/>
<path id="Path 127" d="M76.1796 17.8862H59.4936C50.4186 17.8862 43.0586 25.2432 43.0586 34.3208C43.0586 34.3618 43.0616 34.4028 43.0616 34.4458H43.0586V51.0068C43.0586 51.7368 43.6516 52.332 44.3856 52.332H58.2936C59.0256 52.332 59.6196 51.7368 59.6196 51.0068V41.4019C59.6196 37.562 62.7326 34.4458 66.5716 34.4458H76.1796C76.9106 34.4458 77.5056 33.8501 77.5056 33.1221V19.2109C77.5056 18.48 76.9106 17.8862 76.1796 17.8862Z" fill="white"/>
</g>
<g id="Group 148">
<path id="Path 128" d="M12.6102 79.4834V71.6963H4.29434V79.4834H0.708984V61.8521H4.29434V68.6694H12.6102V61.8521H16.1956V79.4834H12.6102Z" fill="white"/>
<path id="Path 129" d="M24.8431 68.3149C22.5511 68.3149 21.0531 70.0781 21.0531 72.6338C21.0531 75.2212 22.5811 76.9551 24.8431 76.9551C27.1061 76.9551 28.6051 75.2212 28.6051 72.6338C28.6051 70.0781 27.1061 68.3149 24.8431 68.3149ZM24.8431 79.4521C20.7291 79.4521 17.7031 76.4839 17.7031 72.6338C17.7031 68.8149 20.7291 65.8169 24.8431 65.8169C28.9281 65.8169 31.9551 68.8149 31.9551 72.6338C31.9551 76.4839 28.9281 79.4521 24.8431 79.4521Z" fill="white"/>
<path id="Path 130" d="M58.3318 79.4829V72.46C58.3318 69.9922 57.4798 69.1689 55.9218 69.1689C54.3068 69.1689 52.5428 70.6382 52.5428 72.4009V79.4829H49.1348V66.7891H52.2488L52.3958 69.1401C53.2478 67.5229 55.1588 66.436 57.0978 66.436C60.4778 66.436 61.7408 68.7871 61.7408 71.9312V79.4829H58.3318Z" fill="white"/>
<path id="Path 131" d="M84.0145 79.4829V68.6689C84.0145 68.2578 84.1035 67.1108 84.1315 66.9941L83.4865 68.6689L78.7545 79.4829H76.5515L71.8195 68.6689C71.6425 68.2578 71.2615 67.1699 71.2025 66.9941C71.2025 67.083 71.2915 68.2578 71.2915 68.6689V79.4829H68.1465V61.8521H71.9665L77.7855 74.752L83.5735 61.8521H87.2765V79.4829H84.0145Z" fill="white"/>
<path id="Path 132" d="M91.3923 83.8208H94.6768L101.969 66.7881H98.7368L95.2684 75.2812L91.7723 66.7881H88.4219L93.5936 78.7778L91.3923 83.8208Z" fill="white"/>
<path id="Path 133" d="M40.1979 76.9132C40.1149 76.9181 40.0309 76.9249 39.9459 76.9249C37.9479 76.9249 36.3319 75.3683 36.3319 72.7521C36.3319 70.1373 37.9479 68.5802 39.9459 68.5802C40.0309 68.5802 40.1149 68.5861 40.1979 68.5919C42.0779 68.7179 43.5609 70.2482 43.5609 72.7521C43.5609 75.257 42.0779 76.7882 40.1979 76.9132ZM47.1109 79.4523V66.4049H44.8629H44.0249L43.9569 67.5919C43.6439 67.3199 43.2969 67.0861 42.9299 66.8854C42.6899 66.7443 42.4309 66.6202 42.1509 66.5201C42.1229 66.5114 42.0959 66.504 42.0689 66.4943C41.5969 66.318 41.1049 66.1959 40.6059 66.1261C40.5239 66.1129 40.4449 66.1051 40.3639 66.0963C40.3129 66.09 40.2619 66.0812 40.2109 66.0773C39.6639 66.0201 39.1599 66.026 38.7059 66.0734C38.0029 66.1281 37.3429 66.3053 36.7419 66.588C36.5759 66.6632 36.4359 66.7369 36.3319 66.7999L36.3249 66.8063C34.4299 67.903 33.2109 70.1012 33.2109 72.7521C33.2109 76.486 35.8129 79.32 39.3889 79.4459C39.4719 79.4503 39.5549 79.4523 39.6389 79.4523C41.1849 79.4523 42.7919 78.924 43.9569 77.9142L44.0249 79.4523H47.1109Z" fill="white"/>
</g>
</g>
</svg>
