<svg width="33" height="32" viewBox="0 0 33 32" fill="none" xmlns="http://www.w3.org/2000/svg">
<g id="MapPin">
<path id="Vector" d="M16.9258 17C19.1349 17 20.9258 15.2091 20.9258 13C20.9258 10.7909 19.1349 9 16.9258 9C14.7166 9 12.9258 10.7909 12.9258 13C12.9258 15.2091 14.7166 17 16.9258 17Z" stroke="#009BAB" stroke-width="2" stroke-linecap="round" stroke-linejoin="round"/>
<path id="Vector_2" d="M26.9258 13C26.9258 22 16.9258 29 16.9258 29C16.9258 29 6.92578 22 6.92578 13C6.92578 10.3478 7.97935 7.8043 9.85471 5.92893C11.7301 4.05357 14.2736 3 16.9258 3C19.5779 3 22.1215 4.05357 23.9968 5.92893C25.8722 7.8043 26.9258 10.3478 26.9258 13V13Z" stroke="#009BAB" stroke-width="2" stroke-linecap="round" stroke-linejoin="round"/>
</g>
</svg>
