<svg width="25" height="25" viewBox="0 0 25 25" fill="none" xmlns="http://www.w3.org/2000/svg">
<g id="MapPin">
<path id="Vector" d="M12.1543 12.8879C13.8112 12.8879 15.1543 11.5448 15.1543 9.88794C15.1543 8.23109 13.8112 6.88794 12.1543 6.88794C10.4974 6.88794 9.1543 8.23109 9.1543 9.88794C9.1543 11.5448 10.4974 12.8879 12.1543 12.8879Z" stroke="#009BAB" stroke-width="1.5" stroke-linecap="round" stroke-linejoin="round"/>
<path id="Vector_2" d="M19.6543 9.88794C19.6543 16.6379 12.1543 21.8879 12.1543 21.8879C12.1543 21.8879 4.6543 16.6379 4.6543 9.88794C4.6543 7.89882 5.44447 5.99116 6.851 4.58464C8.25752 3.17812 10.1652 2.38794 12.1543 2.38794C14.1434 2.38794 16.0511 3.17812 17.4576 4.58464C18.8641 5.99116 19.6543 7.89882 19.6543 9.88794V9.88794Z" stroke="#009BAB" stroke-width="1.5" stroke-linecap="round" stroke-linejoin="round"/>
</g>
</svg>
