<svg width="24" height="25" viewBox="0 0 24 25" fill="none" xmlns="http://www.w3.org/2000/svg">
<g id="SlidersHorizontal">
<path id="Vector" d="M13.875 16.7109L3.75 16.711" stroke="#18191C" stroke-width="1.5" stroke-linecap="round" stroke-linejoin="round"/>
<path id="Vector_2" d="M20.25 16.711L17.625 16.7109" stroke="#18191C" stroke-width="1.5" stroke-linecap="round" stroke-linejoin="round"/>
<path id="Vector_3" d="M15.75 18.5859C16.7855 18.5859 17.625 17.7465 17.625 16.7109C17.625 15.6754 16.7855 14.8359 15.75 14.8359C14.7145 14.8359 13.875 15.6754 13.875 16.7109C13.875 17.7465 14.7145 18.5859 15.75 18.5859Z" stroke="#18191C" stroke-width="1.5" stroke-linecap="round" stroke-linejoin="round"/>
<path id="Vector_4" d="M7.875 8.46101L3.75 8.46094" stroke="#18191C" stroke-width="1.5" stroke-linecap="round" stroke-linejoin="round"/>
<path id="Vector_5" d="M20.25 8.46094L11.625 8.46101" stroke="#18191C" stroke-width="1.5" stroke-linecap="round" stroke-linejoin="round"/>
<path id="Vector_6" d="M9.75 10.3359C10.7855 10.3359 11.625 9.49647 11.625 8.46094C11.625 7.4254 10.7855 6.58594 9.75 6.58594C8.71447 6.58594 7.875 7.4254 7.875 8.46094C7.875 9.49647 8.71447 10.3359 9.75 10.3359Z" stroke="#18191C" stroke-width="1.5" stroke-linecap="round" stroke-linejoin="round"/>
</g>
</svg>
