<svg width="33" height="33" viewBox="0 0 33 33" fill="none" xmlns="http://www.w3.org/2000/svg">
<g id="SlidersHorizontal">
<path id="Vector" d="M19 22.2617L5.5 22.2617" stroke="white" stroke-width="1.5" stroke-linecap="round" stroke-linejoin="round"/>
<path id="Vector_2" d="M27.5 22.2617L24 22.2617" stroke="white" stroke-width="1.5" stroke-linecap="round" stroke-linejoin="round"/>
<path id="Vector_3" d="M21.5 24.7617C22.8807 24.7617 24 23.6424 24 22.2617C24 20.881 22.8807 19.7617 21.5 19.7617C20.1193 19.7617 19 20.881 19 22.2617C19 23.6424 20.1193 24.7617 21.5 24.7617Z" stroke="white" stroke-width="1.5" stroke-linecap="round" stroke-linejoin="round"/>
<path id="Vector_4" d="M11 11.2618L5.5 11.2617" stroke="white" stroke-width="1.5" stroke-linecap="round" stroke-linejoin="round"/>
<path id="Vector_5" d="M27.5 11.2617L16 11.2618" stroke="white" stroke-width="1.5" stroke-linecap="round" stroke-linejoin="round"/>
<path id="Vector_6" d="M13.5 13.7617C14.8807 13.7617 16 12.6424 16 11.2617C16 9.88101 14.8807 8.76172 13.5 8.76172C12.1193 8.76172 11 9.88101 11 11.2617C11 12.6424 12.1193 13.7617 13.5 13.7617Z" stroke="white" stroke-width="1.5" stroke-linecap="round" stroke-linejoin="round"/>
</g>
</svg>
