<svg width="33" height="32" viewBox="0 0 33 32" fill="none" xmlns="http://www.w3.org/2000/svg">
<g id="Wallet">
<path id="Vector" d="M5.96289 8V24C5.96289 24.5304 6.1736 25.0391 6.54868 25.4142C6.92375 25.7893 7.43246 26 7.96289 26H27.9629C28.2281 26 28.4825 25.8946 28.67 25.7071C28.8575 25.5196 28.9629 25.2652 28.9629 25V11C28.9629 10.7348 28.8575 10.4804 28.67 10.2929C28.4825 10.1054 28.2281 10 27.9629 10H7.96289C7.43246 10 6.92375 9.78929 6.54868 9.41421C6.1736 9.03914 5.96289 8.53043 5.96289 8ZM5.96289 8C5.96289 7.46957 6.1736 6.96086 6.54868 6.58579C6.92375 6.21071 7.43246 6 7.96289 6H24.9629" stroke="#009BAB" stroke-width="2" stroke-linecap="round" stroke-linejoin="round"/>
<path id="Vector_2" d="M23.9629 18C23.9629 18.2761 23.739 18.5 23.4629 18.5C23.1867 18.5 22.9629 18.2761 22.9629 18C22.9629 17.7239 23.1867 17.5 23.4629 17.5C23.739 17.5 23.9629 17.7239 23.9629 18Z" fill="#18191C" stroke="#009BAB" stroke-width="2"/>
</g>
</svg>
